HIERARCHY
ROOT Hips
{
	OFFSET -32.860001 56.121803 44.745396
	CHANNELS 6 Xposition Yposition Zposition Zrotation Xrotation Yrotation
	JOINT Chest
	{
		OFFSET -0.637402 0.831600 5.390099
		CHANNELS 6 Xposition Yposition Zposition Zrotation Xrotation Yrotation
		JOINT Chest2
		{
			OFFSET 0.000000 0.000000 4.429901
			CHANNELS 6 Xposition Yposition Zposition Zrotation Xrotation Yrotation
			JOINT Neck
			{
				OFFSET 0.000000 0.000000 10.301395
				CHANNELS 6 Xposition Yposition Zposition Zrotation Xrotation Yrotation
				JOINT Head
				{
					OFFSET 0.000000 0.000000 2.173897
					CHANNELS 6 Xposition Yposition Zposition Zrotation Xrotation Yrotation
					End Site
					{
						OFFSET 0.000000 0.000000 8.298004
					}
				}
			}
			JOINT LeftCollar
			{
				OFFSET 2.142401 -0.572701 5.717800
				CHANNELS 6 Xposition Yposition Zposition Zrotation Xrotation Yrotation
				JOINT LeftShoulder
				{
					OFFSET 5.674000 0.000000 0.000000
					CHANNELS 6 Xposition Yposition Zposition Zrotation Xrotation Yrotation
					JOINT LeftElbow
					{
						OFFSET 0.000000 0.000000 -12.238701
						CHANNELS 6 Xposition Yposition Zposition Zrotation Xrotation Yrotation
						JOINT LeftWrist
						{
							OFFSET 0.000000 0.000000 -10.253700
							CHANNELS 6 Xposition Yposition Zposition Zrotation Xrotation Yrotation
							End Site
							{
								OFFSET 0.000000 0.000000 -2.173901
							}
						}
					}
				}
			}
			JOINT RightCollar
			{
				OFFSET -2.882599 -1.580101 6.695801
				CHANNELS 6 Xposition Yposition Zposition Zrotation Xrotation Yrotation
				JOINT RightShoulder
				{
					OFFSET -4.235600 0.000000 0.000000
					CHANNELS 6 Xposition Yposition Zposition Zrotation Xrotation Yrotation
					JOINT RightElbow
					{
						OFFSET 0.000000 0.000000 -10.709900
						CHANNELS 6 Xposition Yposition Zposition Zrotation Xrotation Yrotation
						JOINT RightWrist
						{
							OFFSET 0.000000 0.000000 -11.716801
							CHANNELS 6 Xposition Yposition Zposition Zrotation Xrotation Yrotation
							End Site
							{
								OFFSET 0.000000 0.000000 -2.173901
							}
						}
					}
				}
			}
		}
	}
	JOINT LeftHip
	{
		OFFSET 2.279499 0.210400 -2.475502
		CHANNELS 6 Xposition Yposition Zposition Zrotation Xrotation Yrotation
		JOINT LeftKnee
		{
			OFFSET 0.000000 -0.000004 -20.742800
			CHANNELS 6 Xposition Yposition Zposition Zrotation Xrotation Yrotation
			JOINT LeftAnkle
			{
				OFFSET 0.000000 0.000000 -16.666000
				CHANNELS 6 Xposition Yposition Zposition Zrotation Xrotation Yrotation
				End Site
				{
					OFFSET 0.000000 -8.310898 0.000000
				}
			}
		}
	}
	JOINT RightHip
	{
		OFFSET -1.961899 0.232300 -2.727402
		CHANNELS 6 Xposition Yposition Zposition Zrotation Xrotation Yrotation
		JOINT RightKnee
		{
			OFFSET 0.000000 -0.000004 -20.526800
			CHANNELS 6 Xposition Yposition Zposition Zrotation Xrotation Yrotation
			JOINT RightAnkle
			{
				OFFSET 0.000000 0.000000 -16.867300
				CHANNELS 6 Xposition Yposition Zposition Zrotation Xrotation Yrotation
				End Site
				{
					OFFSET 0.000000 -7.186401 0.000000
				}
			}
		}
	}
}
MOTION
Frames: 4
Frame Time: 0.041667
-47.992809 19.078205 41.638691 825.236624 4.729743 1.517350 -0.637412 0.831608 5.390097 -16.959051 11.081670 3.575282 -0.000000 -0.000001 4.429902 4.017826 -2.862653 -0.277701 -0.000001 -0.000010 10.301388 355.127845 40.652261 3.973797 -0.000005 0.000001 2.173897 -359.653118 7.472217 0.247389 2.142395 -0.572701 5.717792 -4.581469 -2.492148 -11.496037 5.674006 0.000002 -0.000003 340.783327 -340.276527 -78.291822 -0.000001 -0.000005 -12.238705 -690.113790 -2.951650 2.820724 0.000007 -0.000002 -10.253704 504.010259 7.414219 14.287372 -2.882596 -1.580105 6.695792 -5.933750 -1.563087 -0.788437 -4.235607 0.000006 -0.000003 -719.366506 6.501330 -283.782448 -0.000004 -0.000002 -10.709904 179.074473 -180.281040 180.882561 -0.000006 0.000007 -11.716801 -692.627955 -3.042508 373.706724 2.279482 0.210407 -2.475492 434.131222 -42.401381 26.683063 0.000002 -0.000006 -20.742805 -506.680481 12.760819 59.295270 -0.000008 0.000011 -16.666004 421.737407 8.736866 33.584266 -1.961904 0.232298 -2.727398 -1132.156529 -32.229706 -5.023154 0.000002 -0.000008 -20.526796 950.472514 118.449796 -183.503045 -0.000001 0.000005 -16.867300 -3.551941 23.589556 4.460076
-47.773396 19.190208 41.987888 823.542136 4.667339 2.086340 -0.637408 0.831603 5.390100 -17.416351 9.768669 3.929426 -0.000001 -0.000001 4.429909 4.162515 -2.908190 -0.336592 -0.000003 -0.000008 10.301392 355.303900 38.683780 4.248367 0.000004 0.000009 2.173892 -359.586592 7.070491 0.135588 2.142397 -0.572707 5.717800 -3.945603 -3.185652 -10.336971 5.673998 -0.000003 -0.000001 341.842471 -341.114455 -76.427775 -0.000002 0.000003 -12.238696 -693.477139 -2.223183 1.861022 0.000004 -0.000001 -10.253709 524.210353 9.033864 14.184829 -2.882601 -1.580101 6.695794 -5.283013 -1.021275 0.174068 -4.235601 0.000000 -0.000003 -720.125969 4.568458 -283.345425 0.000006 0.000008 -10.709903 178.121102 -182.093048 181.989448 0.000006 0.000004 -11.716805 -710.658398 -7.394109 368.403465 2.279491 0.210402 -2.475500 432.710078 -42.175151 23.362715 0.000001 -0.000002 -20.742805 -491.339111 27.483985 53.781528 -0.000005 -0.000002 -16.666002 407.329970 11.312351 23.696168 -1.961891 0.232297 -2.727406 -1130.952230 -31.530745 -3.262595 -0.000001 -0.000005 -20.526791 939.070251 121.767820 -177.265962 0.000001 0.000002 -16.867302 -0.900434 24.911580 3.699489
-47.554203 19.295811 42.298790 821.849506 4.667516 2.581315 -0.637406 0.831595 5.390101 -17.730838 8.337178 4.209913 0.000004 0.000002 4.429897 4.291854 -2.820435 -0.329294 -0.000001 -0.000000 10.301407 355.316713 36.513317 4.421082 -0.000001 0.000011 2.173899 -359.292812 6.639178 0.179888 2.142397 -0.572693 5.717810 -3.326973 -3.925868 -9.310788 5.673997 0.000006 0.000004 342.930794 -341.898260 -74.570352 0.000002 -0.000010 -12.238706 -696.590558 -1.532834 1.137896 0.000003 0.000001 -10.253696 538.359335 8.109455 15.602485 -2.882600 -1.580092 6.695803 -4.624316 -0.680078 1.241648 -4.235600 -0.000000 0.000007 -720.955591 2.715949 -282.725135 0.000002 0.000006 -10.709898 168.704265 -183.312360 183.547195 -0.000005 0.000007 -11.716802 -721.001271 -8.861490 364.235902 2.279492 0.210407 -2.475497 430.882320 -41.868486 19.910042 -0.000004 -0.000005 -20.742804 -464.125725 43.083495 38.807772 -0.000005 0.000001 -16.666004 387.286397 15.338074 13.719046 -1.961900 0.232299 -2.727399 -1129.432431 -30.791565 -1.441799 0.000006 -0.000010 -20.526793 930.958390 125.032774 -174.129089 -0.000001 0.000008 -16.867300 0.996213 25.768323 2.459893
-47.337196 19.392502 42.565495 820.152887 4.754331 2.994515 -0.637406 0.831599 5.390095 -17.879036 6.780505 4.480823 -0.000001 -0.000001 4.429902 4.410993 -2.704614 -0.318934 -0.000002 0.000004 10.301394 355.149073 34.333411 4.507530 -0.000002 -0.000006 2.173889 -359.093944 6.148869 0.043645 2.142398 -0.572692 5.717803 -3.873759 -7.070774 -8.497216 5.673997 -0.000004 -0.000004 344.478241 -340.002992 -72.015964 -0.000004 -0.000003 -12.238699 -699.348369 -0.929871 0.633165 0.000008 0.000003 -10.253699 551.966930 6.123005 17.875491 -2.882601 -1.580088 6.695796 -4.024915 -0.173789 1.957330 -4.235603 0.000007 0.000004 -721.874934 0.651440 -281.445431 -0.000003 0.000008 -10.709902 171.975120 -184.781055 184.233493 0.000005 0.000008 -11.716801 -740.095748 -7.209674 360.701716 2.279497 0.210402 -2.475501 428.669858 -41.456977 16.342069 0.000004 -0.000007 -20.742794 -433.613740 48.794031 18.296333 0.000007 -0.000004 -16.666000 369.961021 19.246823 10.312454 -1.961896 0.232297 -2.727407 -1127.553528 -30.059075 0.390515 0.000002 0.000000 -20.526796 925.080275 127.983292 -173.039154 -0.000000 -0.000002 -16.867298 2.203836 26.251026 1.053480
